{
  "accessors": [
    {
      "bufferView": 2,
      "componentType": 5126,
      "count": 65532,
      "max": [
        1.7018929719924927,
        5.723659992218018,
        23.005895614624023
      ],
      "min": [
        -6.1759490966796875,
        -5.344326972961426,
        0.18910099565982819
      ],
      "type": "VEC3"
    },
    {
      "bufferView": 2,
      "byteOffset": 786384,
      "componentType": 5126,
      "count": 65532,
      "max": [
        0.9344509840011597,
        0.9999997615814209,
        0.9998941421508789
      ],
      "min": [
        -0.9999991655349731,
        -0.9999991655349731,
        -0.9979828000068665
      ],
      "type": "VEC3"
    },
    {
      "bufferView": 1,
      "componentType": 5126,
      "count": 65532,
      "max": [
        0.9994310140609741,
        0.9955059885978699
      ],
      "min": [
        0.0005559999844990671,
        0.0005540000274777412
      ],
      "type": "VEC2"
    },
    {
      "bufferView": 0,
      "componentType": 5125,
      "count": 165573,
      "type": "SCALAR"
    },
    {
      "bufferView": 2,
      "byteOffset": 1572768,
      "componentType": 5126,
      "count": 65532,
      "max": [
        2.8928349018096924,
        5.771045207977295,
        19.288089752197266
      ],
      "min": [
        -2.5122079849243164,
        -5.018136978149414,
        10.61124038696289
      ],
      "type": "VEC3"
    },
    {
      "bufferView": 2,
      "byteOffset": 2359152,
      "componentType": 5126,
      "count": 65532,
      "max": [
        0.9999995231628418,
        0.9999972581863403,
        0.999441385269165
      ],
      "min": [
        -0.9999899864196777,
        -0.9999971389770508,
        -0.9993977546691895
      ],
      "type": "VEC3"
    },
    {
      "bufferView": 1,
      "byteOffset": 524256,
      "componentType": 5126,
      "count": 65532,
      "max": [
        0.9993669986724854,
        0.9988430142402649
      ],
      "min": [
        0.0005600000149570405,
        0.0005590000073425472
      ],
      "type": "VEC2"
    },
    {
      "bufferView": 0,
      "byteOffset": 662292,
      "componentType": 5125,
      "count": 161751,
      "type": "SCALAR"
    },
    {
      "bufferView": 2,
      "byteOffset": 3145536,
      "componentType": 5126,
      "count": 65532,
      "max": [
        4.3174920082092285,
        5.703059196472168,
        18.49855613708496
      ],
      "min": [
        -1.6337779760360718,
        -5.337503910064697,
        0.15275399386882782
      ],
      "type": "VEC3"
    },
    {
      "bufferView": 2,
      "byteOffset": 3931920,
      "componentType": 5126,
      "count": 65532,
      "max": [
        0.9999995231628418,
        0.9999984502792358,
        0.999987006187439
      ],
      "min": [
        -0.9999850988388062,
        -0.9999988079071045,
        -0.999478280544281
      ],
      "type": "VEC3"
    },
    {
      "bufferView": 1,
      "byteOffset": 1048512,
      "componentType": 5126,
      "count": 65532,
      "max": [
        0.9993990063667297,
        0.9985809922218323
      ],
      "min": [
        0.0005559999844990671,
        0.0005619999719783664
      ],
      "type": "VEC2"
    },
    {
      "bufferView": 0,
      "byteOffset": 1309296,
      "componentType": 5125,
      "count": 159495,
      "type": "SCALAR"
    },
    {
      "bufferView": 2,
      "byteOffset": 4718304,
      "componentType": 5126,
      "count": 65532,
      "max": [
        4.236330986022949,
        5.591322898864746,
        26.240419387817383
      ],
      "min": [
        -2.4027140140533447,
        -3.9486238956451416,
        0.14768800139427185
      ],
      "type": "VEC3"
    },
    {
      "bufferView": 2,
      "byteOffset": 5504688,
      "componentType": 5126,
      "count": 65532,
      "max": [
        0.9999998807907104,
        0.9999997615814209,
        0.9999804496765137
      ],
      "min": [
        -0.9999732971191406,
        -0.9999300241470337,
        -0.9997126460075378
      ],
      "type": "VEC3"
    },
    {
      "bufferView": 1,
      "byteOffset": 1572768,
      "componentType": 5126,
      "count": 65532,
      "max": [
        0.9994379878044128,
        0.9940810203552246
      ],
      "min": [
        0.0005559999844990671,
        0.0005569999921135604
      ],
      "type": "VEC2"
    },
    {
      "bufferView": 0,
      "byteOffset": 1947276,
      "componentType": 5125,
      "count": 144801,
      "type": "SCALAR"
    },
    {
      "bufferView": 2,
      "byteOffset": 6291072,
      "componentType": 5126,
      "count": 65532,
      "max": [
        2.903578996658325,
        5.458439826965332,
        26.399152755737305
      ],
      "min": [
        -6.237033843994141,
        -3.9074740409851074,
        17.473323822021484
      ],
      "type": "VEC3"
    },
    {
      "bufferView": 2,
      "byteOffset": 7077456,
      "componentType": 5126,
      "count": 65532,
      "max": [
        0.9999991655349731,
        0.9999302625656128,
        0.999987006187439
      ],
      "min": [
        -0.9997947812080383,
        -0.9998738765716553,
        -0.9994612336158752
      ],
      "type": "VEC3"
    },
    {
      "bufferView": 1,
      "byteOffset": 2097024,
      "componentType": 5126,
      "count": 65532,
      "max": [
        0.9994419813156128,
        0.9973610043525696
      ],
      "min": [
        0.0005590000073425472,
        0.0005569999921135604
      ],
      "type": "VEC2"
    },
    {
      "bufferView": 0,
      "byteOffset": 2526480,
      "componentType": 5125,
      "count": 140943,
      "type": "SCALAR"
    },
    {
      "bufferView": 2,
      "byteOffset": 7863840,
      "componentType": 5126,
      "count": 65532,
      "max": [
        2.632431983947754,
        5.238128185272217,
        26.39626121520996
      ],
      "min": [
        -6.395627021789551,
        -3.000037908554077,
        18.023773193359375
      ],
      "type": "VEC3"
    },
    {
      "bufferView": 2,
      "byteOffset": 8650224,
      "componentType": 5126,
      "count": 65532,
      "max": [
        0.9999626874923706,
        0.9999856948852539,
        0.9999604225158691
      ],
      "min": [
        -1.0,
        -0.9999943971633911,
        -0.9999942779541016
      ],
      "type": "VEC3"
    },
    {
      "bufferView": 1,
      "byteOffset": 2621280,
      "componentType": 5126,
      "count": 65532,
      "max": [
        0.999459981918335,
        0.9973490238189697
      ],
      "min": [
        0.0005590000073425472,
        0.0005549999768845737
      ],
      "type": "VEC2"
    },
    {
      "bufferView": 0,
      "byteOffset": 3090252,
      "componentType": 5125,
      "count": 135846,
      "type": "SCALAR"
    },
    {
      "bufferView": 2,
      "byteOffset": 9436608,
      "componentType": 5126,
      "count": 65532,
      "max": [
        2.8387129306793213,
        5.749327182769775,
        23.993066787719727
      ],
      "min": [
        -5.16048002243042,
        -4.9530768394470215,
        10.042774200439453
      ],
      "type": "VEC3"
    },
    {
      "bufferView": 2,
      "byteOffset": 10222992,
      "componentType": 5126,
      "count": 65532,
      "max": [
        0.9999996423721313,
        0.9999556541442871,
        0.9995554089546204
      ],
      "min": [
        -0.9999905824661255,
        -0.9999725818634033,
        -0.9999942779541016
      ],
      "type": "VEC3"
    },
    {
      "bufferView": 1,
      "byteOffset": 3145536,
      "componentType": 5126,
      "count": 65532,
      "max": [
        0.9994360208511353,
        0.9975529909133911
      ],
      "min": [
        0.0005549999768845737,
        0.0005559999844990671
      ],
      "type": "VEC2"
    },
    {
      "bufferView": 0,
      "byteOffset": 3633636,
      "componentType": 5125,
      "count": 146469,
      "type": "SCALAR"
    },
    {
      "bufferView": 2,
      "byteOffset": 11009376,
      "componentType": 5126,
      "count": 65532,
      "max": [
        2.8685150146484375,
        5.683365821838379,
        18.124391555786133
      ],
      "min": [
        -1.193789005279541,
        -5.184701919555664,
        6.46355676651001
      ],
      "type": "VEC3"
    },
    {
      "bufferView": 2,
      "byteOffset": 11795760,
      "componentType": 5126,
      "count": 65532,
      "max": [
        0.9999994039535522,
        0.9999974966049194,
        0.963936448097229
      ],
      "min": [
        -0.9999972581863403,
        -0.9999910593032837,
        -0.9992885589599609
      ],
      "type": "VEC3"
    },
    {
      "bufferView": 1,
      "byteOffset": 3669792,
      "componentType": 5126,
      "count": 65532,
      "max": [
        0.9993889927864075,
        0.9967430233955383
      ],
      "min": [
        0.0005579999997280538,
        0.0005549999768845737
      ],
      "type": "VEC2"
    },
    {
      "bufferView": 0,
      "byteOffset": 4219512,
      "componentType": 5125,
      "count": 168336,
      "type": "SCALAR"
    },
    {
      "bufferView": 2,
      "byteOffset": 12582144,
      "componentType": 5126,
      "count": 65532,
      "max": [
        3.0064010620117188,
        5.771045207977295,
        11.22442626953125
      ],
      "min": [
        -1.2927039861679077,
        -5.1232428550720215,
        4.346928119659424
      ],
      "type": "VEC3"
    },
    {
      "bufferView": 2,
      "byteOffset": 13368528,
      "componentType": 5126,
      "count": 65532,
      "max": [
        0.9999990463256836,
        0.9999920129776001,
        0.9297035932540894
      ],
      "min": [
        -0.9999983310699463,
        -0.9999881982803345,
        -0.9915949106216431
      ],
      "type": "VEC3"
    },
    {
      "bufferView": 1,
      "byteOffset": 4194048,
      "componentType": 5126,
      "count": 65532,
      "max": [
        0.9994459748268127,
        0.9874150156974792
      ],
      "min": [
        0.0005990000208839774,
        0.0005540000274777412
      ],
      "type": "VEC2"
    },
    {
      "bufferView": 0,
      "byteOffset": 4892856,
      "componentType": 5125,
      "count": 164913,
      "type": "SCALAR"
    },
    {
      "bufferView": 2,
      "byteOffset": 14154912,
      "componentType": 5126,
      "count": 65532,
      "max": [
        3.038362979888916,
        5.767735004425049,
        11.490154266357422
      ],
      "min": [
        -2.476789951324463,
        -5.1551032066345215,
        4.4076828956604
      ],
      "type": "VEC3"
    },
    {
      "bufferView": 2,
      "byteOffset": 14941296,
      "componentType": 5126,
      "count": 65532,
      "max": [
        0.9999995231628418,
        0.9999879598617554,
        0.996118426322937
      ],
      "min": [
        -0.9999812841415405,
        -0.9999951124191284,
        -0.9998404383659363
      ],
      "type": "VEC3"
    },
    {
      "bufferView": 1,
      "byteOffset": 4718304,
      "componentType": 5126,
      "count": 65532,
      "max": [
        0.9994189739227295,
        0.9922379851341248
      ],
      "min": [
        0.0005579999997280538,
        0.0005579999997280538
      ],
      "type": "VEC2"
    },
    {
      "bufferView": 0,
      "byteOffset": 5552508,
      "componentType": 5125,
      "count": 162879,
      "type": "SCALAR"
    },
    {
      "bufferView": 2,
      "byteOffset": 15727680,
      "componentType": 5126,
      "count": 65532,
      "max": [
        -0.2456119954586029,
        5.685090065002441,
        18.202442169189453
      ],
      "min": [
        -2.516526937484741,
        -5.914265155792236,
        4.380366802215576
      ],
      "type": "VEC3"
    },
    {
      "bufferView": 2,
      "byteOffset": 16514064,
      "componentType": 5126,
      "count": 65532,
      "max": [
        0.9758912920951843,
        0.999990701675415,
        0.999413251876831
      ],
      "min": [
        -1.0,
        -0.9999886751174927,
        -0.999388575553894
      ],
      "type": "VEC3"
    },
    {
      "bufferView": 1,
      "byteOffset": 5242560,
      "componentType": 5126,
      "count": 65532,
      "max": [
        0.9994350075721741,
        0.9988399744033813
      ],
      "min": [
        0.0005549999768845737,
        0.0005549999768845737
      ],
      "type": "VEC2"
    },
    {
      "bufferView": 0,
      "byteOffset": 6204024,
      "componentType": 5125,
      "count": 151419,
      "type": "SCALAR"
    },
    {
      "bufferView": 2,
      "byteOffset": 17300448,
      "componentType": 5126,
      "count": 28752,
      "max": [
        -0.25589999556541443,
        5.72183084487915,
        18.16106605529785
      ],
      "min": [
        -2.5147979259490967,
        -5.7562479972839355,
        10.829504013061523
      ],
      "type": "VEC3"
    },
    {
      "bufferView": 2,
      "byteOffset": 17645472,
      "componentType": 5126,
      "count": 28752,
      "max": [
        0.982507050037384,
        0.9999817609786987,
        0.9991865158081055
      ],
      "min": [
        -1.0,
        -0.9996702075004578,
        -0.9999544620513916
      ],
      "type": "VEC3"
    },
    {
      "bufferView": 1,
      "byteOffset": 5766816,
      "componentType": 5126,
      "count": 28752,
      "max": [
        0.9994400143623352,
        0.9992510080337524
      ],
      "min": [
        0.0005549999768845737,
        0.0005590000073425472
      ],
      "type": "VEC2"
    },
    {
      "bufferView": 0,
      "byteOffset": 6809700,
      "componentType": 5125,
      "count": 63279,
      "type": "SCALAR"
    },
    {
      "bufferView": 2,
      "byteOffset": 17990496,
      "componentType": 5126,
      "count": 1528,
      "max": [
        4.314477920532227,
        5.581813812255859,
        0.3942050039768219
      ],
      "min": [
        -3.6361470222473145,
        -5.344326972961426,
        0.14768800139427185
      ],
      "type": "VEC3"
    },
    {
      "bufferView": 2,
      "byteOffset": 18008832,
      "componentType": 5126,
      "count": 1528,
      "max": [
        0.271796315908432,
        0.1723976582288742,
        -0.9467871189117432
      ],
      "min": [
        -0.17230252921581268,
        -0.28469163179397583,
        -0.999881386756897
      ],
      "type": "VEC3"
    },
    {
      "bufferView": 1,
      "byteOffset": 5996832,
      "componentType": 5126,
      "count": 1528,
      "max": [
        0.5722010135650635,
        0.9243839979171753
      ],
      "min": [
        0.42649999260902405,
        0.8184199929237366
      ],
      "type": "VEC2"
    },
    {
      "bufferView": 0,
      "byteOffset": 7062816,
      "componentType": 5125,
      "count": 2274,
      "type": "SCALAR"
    }
  ],
  "asset": {
    "extras": {
      "author": "noe-3d.at (https://sketchfab.com/www.noe-3d.at)",
      "license": "CC-BY-NC-4.0 (http://creativecommons.org/licenses/by-nc/4.0/)",
      "source": "https://sketchfab.com/3d-models/christus-01c84b33291b4b8288140fd4ae7e4548",
      "title": "Christus"
    },
    "generator": "Sketchfab-16.59.0",
    "version": "2.0"
  },
  "bufferViews": [
    {
      "buffer": 0,
      "byteLength": 7071912,
      "name": "floatBufferViews",
      "target": 34963
    },
    {
      "buffer": 0,
      "byteLength": 6009056,
      "byteOffset": 7071912,
      "byteStride": 8,
      "name": "floatBufferViews",
      "target": 34962
    },
    {
      "buffer": 0,
      "byteLength": 18027168,
      "byteOffset": 13080968,
      "byteStride": 12,
      "name": "floatBufferViews",
      "target": 34962
    }
  ],
  "buffers": [
    {
      "byteLength": 31108136,
      "uri": "scene.bin"
    }
  ],
  "extensionsUsed": [
    "KHR_materials_specular"
  ],
  "images": [
    {
      "uri": "textures/Christus_O.001_baseColor.png"
    }
  ],
  "materials": [
    {
      "doubleSided": true,
      "extensions": {
        "KHR_materials_specular": {
          "specularColorFactor": [
            1.0,
            1.0,
            1.0
          ],
          "specularFactor": 0.0
        }
      },
      "name": "Christus_O.001",
      "pbrMetallicRoughness": {
        "baseColorTexture": {
          "index": 0
        },
        "metallicFactor": 0.0
      }
    },
    {
      "doubleSided": true,
      "extensions": {
        "KHR_materials_specular": {
          "specularColorFactor": [
            1.0,
            1.0,
            1.0
          ],
          "specularFactor": 0.0
        }
      },
      "name": "bottom",
      "pbrMetallicRoughness": {
        "baseColorFactor": [
          0.11237,
          0.11237,
          0.11237,
          1.0
        ],
        "metallicFactor": 0.0
      }
    }
  ],
  "meshes": [
    {
      "name": "Object_0",
      "primitives": [
        {
          "attributes": {
            "NORMAL": 1,
            "POSITION": 0,
            "TEXCOORD_0": 2
          },
          "indices": 3,
          "material": 0,
          "mode": 4
        }
      ]
    },
    {
      "name": "Object_1",
      "primitives": [
        {
          "attributes": {
            "NORMAL": 5,
            "POSITION": 4,
            "TEXCOORD_0": 6
          },
          "indices": 7,
          "material": 0,
          "mode": 4
        }
      ]
    },
    {
      "name": "Object_2",
      "primitives": [
        {
          "attributes": {
            "NORMAL": 9,
            "POSITION": 8,
            "TEXCOORD_0": 10
          },
          "indices": 11,
          "material": 0,
          "mode": 4
        }
      ]
    },
    {
      "name": "Object_3",
      "primitives": [
        {
          "attributes": {
            "NORMAL": 13,
            "POSITION": 12,
            "TEXCOORD_0": 14
          },
          "indices": 15,
          "material": 0,
          "mode": 4
        }
      ]
    },
    {
      "name": "Object_4",
      "primitives": [
        {
          "attributes": {
            "NORMAL": 17,
            "POSITION": 16,
            "TEXCOORD_0": 18
          },
          "indices": 19,
          "material": 0,
          "mode": 4
        }
      ]
    },
    {
      "name": "Object_5",
      "primitives": [
        {
          "attributes": {
            "NORMAL": 21,
            "POSITION": 20,
            "TEXCOORD_0": 22
          },
          "indices": 23,
          "material": 0,
          "mode": 4
        }
      ]
    },
    {
      "name": "Object_6",
      "primitives": [
        {
          "attributes": {
            "NORMAL": 25,
            "POSITION": 24,
            "TEXCOORD_0": 26
          },
          "indices": 27,
          "material": 0,
          "mode": 4
        }
      ]
    },
    {
      "name": "Object_7",
      "primitives": [
        {
          "attributes": {
            "NORMAL": 29,
            "POSITION": 28,
            "TEXCOORD_0": 30
          },
          "indices": 31,
          "material": 0,
          "mode": 4
        }
      ]
    },
    {
      "name": "Object_8",
      "primitives": [
        {
          "attributes": {
            "NORMAL": 33,
            "POSITION": 32,
            "TEXCOORD_0": 34
          },
          "indices": 35,
          "material": 0,
          "mode": 4
        }
      ]
    },
    {
      "name": "Object_9",
      "primitives": [
        {
          "attributes": {
            "NORMAL": 37,
            "POSITION": 36,
            "TEXCOORD_0": 38
          },
          "indices": 39,
          "material": 0,
          "mode": 4
        }
      ]
    },
    {
      "name": "Object_10",
      "primitives": [
        {
          "attributes": {
            "NORMAL": 41,
            "POSITION": 40,
            "TEXCOORD_0": 42
          },
          "indices": 43,
          "material": 0,
          "mode": 4
        }
      ]
    },
    {
      "name": "Object_11",
      "primitives": [
        {
          "attributes": {
            "NORMAL": 45,
            "POSITION": 44,
            "TEXCOORD_0": 46
          },
          "indices": 47,
          "material": 0,
          "mode": 4
        }
      ]
    },
    {
      "name": "Object_12",
      "primitives": [
        {
          "attributes": {
            "NORMAL": 49,
            "POSITION": 48,
            "TEXCOORD_0": 50
          },
          "indices": 51,
          "material": 1,
          "mode": 4
        }
      ]
    }
  ],
  "nodes": [
    {
      "children": [
        1
      ],
      "matrix": [
        0.005069203779799358,
        0.0008516767531000116,
        -0.20118761306285116,
        0.0,
        -0.2011459642376483,
        0.004203648270939942,
        -0.005050359395772252,
        0.0,
        0.004180904182774503,
        0.20120756179450794,
        0.0009571049339716117,
        0.0,
        0.0,
        0.0,
        0.0,
        1.0
      ],
      "name": "Sketchfab_model"
    },
    {
      "children": [
        2,
        3,
        4,
        5,
        6,
        7,
        8,
        9,
        10,
        11,
        12,
        13,
        14
      ],
      "name": "Christus_C.obj.cleaner.materialmerger.gles"
    },
    {
      "mesh": 0,
      "name": "Object_2"
    },
    {
      "mesh": 1,
      "name": "Object_3"
    },
    {
      "mesh": 2,
      "name": "Object_4"
    },
    {
      "mesh": 3,
      "name": "Object_5"
    },
    {
      "mesh": 4,
      "name": "Object_6"
    },
    {
      "mesh": 5,
      "name": "Object_7"
    },
    {
      "mesh": 6,
      "name": "Object_8"
    },
    {
      "mesh": 7,
      "name": "Object_9"
    },
    {
      "mesh": 8,
      "name": "Object_10"
    },
    {
      "mesh": 9,
      "name": "Object_11"
    },
    {
      "mesh": 10,
      "name": "Object_12"
    },
    {
      "mesh": 11,
      "name": "Object_13"
    },
    {
      "mesh": 12,
      "name": "Object_14"
    }
  ],
  "samplers": [
    {
      "magFilter": 9729,
      "minFilter": 9987,
      "wrapS": 10497,
      "wrapT": 10497
    }
  ],
  "scene": 0,
  "scenes": [
    {
      "name": "Sketchfab_Scene",
      "nodes": [
        0
      ]
    }
  ],
  "textures": [
    {
      "sampler": 0,
      "source": 0
    }
  ]
}
